<svg width="416" height="390" viewBox="0 0 416 390" fill="none" xmlns="http://www.w3.org/2000/svg">
<path d="M75.7002 170.6H150.7C163.4 170.6 173.7 180.9 173.7 193.6V224.5H75.7002C63.0002 224.5 52.7002 214.2 52.7002 201.5V193.6C52.7002 180.9 63.0002 170.6 75.7002 170.6Z" stroke="white" stroke-width="2" stroke-miterlimit="10"/>
<path d="M276.1 364.699C303.7 354.999 330.3 338.399 347.8 314.099C369.2 284.499 367.3 250.899 371.7 216.199C373.5 202.099 382.9 193.999 388.5 181.599C400.3 155.299 396.1 115.699 371.3 97.7991C356 86.7991 341.2 85.5991 332.9 66.3991C328.3 55.7991 325.7 44.1991 318.6 35.0991C308.4 21.8991 290.9 16.6991 274.5 14.0991C255.3 11.0991 236.6 11.7991 217.4 11.1991C196.9 10.5991 176.1 11.1991 156.2 16.5991C129.2 23.9991 99.5003 43.2991 94.8003 72.7991C92.8003 85.3991 95.4003 98.8991 90.6003 110.699C83.4003 128.499 64.2003 134.599 49.8003 145.099C34.4003 156.399 24.4003 174.099 20.0003 192.399C12.5003 223.699 18.0002 258.399 32.6002 286.799C48.2002 317.199 73.5002 343.099 104.1 358.299C128.1 370.199 161.3 373.699 188.4 375.399C218 377.299 248.2 374.499 276.1 364.699Z" fill="#E1E8F6"/>
<path d="M346.6 242.6C346.4 197.9 334.1 155 297.7 126.2C252.8 90.6999 190.1 91.0999 144.3 124.3C114.3 146 93.3004 178.6 81.5004 213.7C69.7004 248.8 66.7004 286.3 67.9004 323.3L340.9 324.2L344.3 286.6C345.6 272 346.6 257.3 346.6 242.6Z" fill="#E6E8E8"/>
<path opacity="0.75" d="M90.7002 165.6H165.7C178.4 165.6 188.7 175.9 188.7 188.6V219.5H90.7002C78.0002 219.5 67.7002 209.2 67.7002 196.5V188.6C67.7002 175.9 78.0002 165.6 90.7002 165.6Z" stroke="white" stroke-miterlimit="10"/>
<path opacity="0.75" d="M152.5 59.3984H257.2C274 59.3984 287.7 72.9984 287.7 89.7984V130.598H152.5C135.7 130.598 122 116.998 122 100.198V89.7984C122 72.9984 135.6 59.3984 152.5 59.3984Z" stroke="white" stroke-miterlimit="10"/>
<path d="M114.4 316.099C114 315.799 113.6 315.499 113.2 315.199C111.8 314.099 111.5 312.099 111.3 310.299C109.5 288.299 112.8 266.199 111.7 244.099C111.5 238.799 107.2 241.399 103.7 242.099C103.2 242.199 96.4 243.499 96.4 242.699C95.8 248.999 95 255.699 90.8 260.399C87.9 263.699 83.8 265.499 80.2 267.999C66.6 277.199 58.7 294.899 56.8 310.899C56.8 310.499 56.7 310.199 56.7 309.799C56.4 306.599 56.2 303.399 56.1 300.199C55.8 293.499 55.7 286.799 55.8 280.099C55.9 275.099 56.5 269.599 53.5 265.299C50.9 261.599 48.1 261.299 44.5 260.999C43.5 258.999 43.7 255.099 43.7 253.299C43.7 250.399 44.2 247.199 46.3 244.999C49.7 241.399 55 243.599 59.4 242.499C69.2 239.999 65.7 227.499 65.1 220.299C64.7 215.899 57.7 215.799 58.1 220.299C58.4 223.899 59.1 227.699 59.1 231.299C59.1 233.599 59.1 235.099 56.7 235.899C55.6 235.999 54.4 235.999 53.3 235.899C48.2 235.899 43.8 236.999 40.5 241.099C36.9 245.599 36.3 251.399 36.9 256.899C37.3 261.099 37.5 266.899 42.6 267.799C47.3 268.599 48.8 269.599 48.9 274.599C49 277.999 48.7 281.399 48.7 284.799C48.7 292.499 48.9 300.099 49.5 307.799C49.8 312.199 49.1 320.099 52.8 323.399C54.4 324.899 56.7 325.199 58.7 324.199C64.5 324.499 78.3 323.699 79.8 323.699H97.6C100.6 323.699 105.8 324.699 108.7 323.199C110.2 322.399 113 320.999 114.1 319.699C115.2 318.799 115.2 317.199 114.4 316.099Z" fill="#EE5050"/>
<path d="M112 250.5C112 248.7 112 246.9 111.9 245.1C111.9 244.7 111.9 244.4 111.8 244.1C111.7 243.7 111.6 243.4 111.5 243C110.2 240.5 105.6 242.7 103.8 243.5C101.8 244.5 99.9001 245.7 98.2001 247.1C97.1001 247.8 96.1001 248.8 95.5001 250C94.9001 251.3 95.3001 253.3 95.4001 254.7C95.4001 255.7 95.7001 256.8 96.3001 257.6C96.9001 258.5 98.1001 258.8 99.0001 258.3C99.1001 259.4 99.4001 260.5 99.9001 261.5C100.3 262.3 101.1 262.8 101.9 263C102.5 263.2 102.4 263.1 102.6 263.6C102.7 264.1 102.9 264.5 103.1 264.9V265C103.2 265.3 103.4 265.6 103.7 265.8C103.8 265.9 104 266 104.2 266.1C104.5 266.3 104.9 266.4 105.3 266.5C106.3 266.7 107.3 266.2 107.9 265.4C108.4 264.4 108.5 263.3 108.3 262.2C109.1 262.2 109.8 261.7 110.1 260.9C110.4 260 110.5 259 110.4 258.1C110.4 257 110.4 256 110.3 254.9C112.4 255.2 112 252 112 250.5Z" fill="#D35050"/>
<path d="M88.9002 286.298C92.5002 288.498 94.6002 292.598 94.3002 296.898C93.9002 301.198 90.4002 304.698 87.3002 307.298C84.2002 309.898 80.3002 312.598 78.2002 316.398C80.4002 316.098 82.6002 315.998 84.8002 315.898C86.7002 315.798 88.8002 315.998 89.9002 317.498C91.0002 318.998 90.4002 321.298 90.7002 323.198C90.9002 323.298 91.2002 323.298 91.4002 323.098C91.6002 323.598 91.5002 323.598 92.0002 323.598C93.8002 323.298 95.3002 322.198 96.1002 320.598C96.8002 318.998 97.2002 317.298 97.4002 315.498C98.2002 309.298 98.4002 302.998 98.1002 296.698C98.1002 294.698 97.7002 292.698 96.8002 290.898C95.0002 288.198 92.2002 286.098 88.9002 286.298Z" fill="url(#paint0_linear_625_305)"/>
<path d="M80.2001 228.2C80.1001 227.9 80.0001 227.6 79.9001 227.3C79.9001 227.5 80.7001 227.8 80.9001 227.8L82.0001 228.4C82.7001 228.8 83.4001 229.2 84.1001 229.6C84.8001 230 85.5001 230.4 86.2001 230.9C86.5001 231.1 86.7001 231.3 87.0001 231.2C87.5001 231.1 88.0001 230.9 88.5001 230.6L90.3001 229.9L93.9001 228.5C96.3001 227.6 98.7001 226.6 101 225.6C101.9 225.2 104 224.7 104.3 223.7C104.4 223.3 104.5 223 104.4 222.6C104.5 220.7 104.9 217.1 104.9 217.1C104.9 217.1 106.3 218.3 106.5 218.6C107 219.2 107.5 219.8 108 220.5C109 221.8 109.8 223.1 110.6 224.5C112.3 227.5 113.7 230.6 114.8 233.8C115.7 236.4 116.2 239 114.5 241.3C112.9 243.5 110.3 244.8 108 246.1C103.2 248.6 98.1001 251.3 92.7001 251.8C91.3001 252 90.0001 251.8 88.7001 251.3C87.5001 250.6 86.5001 249.6 85.9001 248.3C82.7001 241.9 82.0001 234.9 80.2001 228.2Z" fill="#EE5050"/>
<path d="M106.9 242C105.3 241.5 103.7 241.4 102.1 240.9C102.2 240.7 102.3 240.6 102.4 240.4C102.6 240 102.9 239.6 103.1 239.1C103.2 238.9 103.2 238.5 102.9 238.4H102.8C102.3 238.2 101.4 238.7 100.9 238.9C100.1 239.2 99.4002 239.5 98.7002 239.9C98.5002 240 98.4002 240.3 98.5002 240.6C98.6002 240.7 98.7002 240.8 98.8002 240.8L100.8 241.4C100.1 243.1 99.5002 244.8 99.1002 246.6C99.0002 246.9 99.2002 247.2 99.5002 247.2C99.8002 247.3 100.1 247.1 100.1 246.8C100.6 245.1 101.1 243.4 101.8 241.8C103.4 242.3 105.1 242.4 106.7 242.9C107.2 243.2 107.5 242.2 106.9 242Z" fill="#19034D"/>
<path d="M93.1003 237.8C92.9003 237.7 92.7003 237.7 92.5003 237.8C92.4003 237.8 92.2003 237.8 92.1003 238C92.0003 238.1 91.9003 238.3 91.9003 238.4C91.9003 238.5 91.8003 238.6 91.8003 238.6C91.8003 238.7 91.8003 238.9 91.9003 239C92.1003 239.5 92.6003 239.7 93.1003 239.5C93.3003 239.4 93.5003 239.3 93.6003 239.1C93.9003 238.7 93.7003 238.1 93.3003 237.8C93.3003 237.9 93.2003 237.8 93.1003 237.8Z" fill="#19034D"/>
<path d="M108.1 231.8C107.9 231.7 107.7 231.7 107.5 231.8C107.4 231.8 107.2 231.8 107.1 232C107 232.1 106.9 232.3 106.9 232.4C106.9 232.5 106.8 232.6 106.8 232.6C106.8 232.7 106.8 232.9 106.9 233C107.1 233.5 107.6 233.7 108.1 233.5C108.3 233.4 108.5 233.3 108.6 233.1C108.9 232.7 108.7 232.1 108.3 231.8C108.3 231.9 108.2 231.8 108.1 231.8Z" fill="#19034D"/>
<path d="M134 296.7C132.1 303.2 130.5 310.8 134.3 316.4C138.9 323.2 149.6 323.1 156.3 318.4C163 313.7 166.6 305.8 169.7 298.2C174.9 285.4 179.5 272.3 181.3 258.6C182.4 250.6 181.4 240.7 174.2 237.2C163 231.8 153.5 240.4 149.9 249.8C144 265.2 138.7 280.8 134 296.7Z" fill="#FF735F"/>
<path d="M167.9 214.199C165 217.299 162.5 220.599 160.2 224.099C157.1 228.999 154.9 234.199 152.5 239.499C151.6 241.299 144.4 257.299 146 258.399C155.1 264.899 164.1 272.099 174.6 276.099C175 276.199 173 283.899 172.8 284.599C172.1 287.399 171.4 290.299 170.9 293.099C169.8 298.799 168.8 304.599 167.8 310.299C167.2 313.499 166.7 316.699 166.2 319.899C166 321.299 211.4 324.399 215.5 324.399C227.5 324.599 246.4 327.899 253.7 315.699C255.3 312.699 256.4 309.499 257.1 306.199C261.6 286.899 263.6 266.999 263.1 247.199C263.1 242.499 262.6 237.899 261.6 233.299C260 226.699 256.5 220.799 252.9 215.199C249.6 209.999 244.4 207.199 238.9 204.499C222.4 196.599 202.4 193.999 185.7 201.399C178.9 204.499 172.9 208.899 167.9 214.199Z" fill="#F8BD7A"/>
<path d="M243.5 260.999C243 261.999 242.6 263.099 242.1 264.099C240.3 268.099 236 275.099 236 279.499C233.9 285.899 233 292.799 234.2 299.399C234.7 301.999 235.5 304.599 236.4 307.199C237.4 310.499 238.8 313.599 240.7 316.399C242.5 318.799 246.9 322.699 250.3 321.399C253.7 320.099 256.5 313.599 257.8 310.399C265.8 291.599 269 270.899 270.9 250.599C271.6 246.999 270.4 243.299 267.8 240.899C266 238.699 264 236.399 261.3 235.899C258.5 235.399 255.9 236.799 254.1 238.799C252.4 240.899 251 243.299 250.1 245.799L243.5 260.999Z" fill="#FF735F"/>
<path d="M258 258.9C256.5 258.5 234.9 253.2 234.9 255.9C235.1 244.2 235.7 232.5 236.8 220.8C237 217.1 237.7 213.4 239 209.9C240.4 206.5 243 203.3 246.4 202C249 201.1 251.9 201 254.5 201.7C263.1 203.7 270 210.3 272.2 218.9C273 222.5 273.3 226.3 273.1 230C273 241 272.2 252 271.5 263C266.9 262.9 262.4 260.1 258 258.9Z" fill="#F8BD7A"/>
<path d="M268.9 199.5C269.2 200.5 269.4 201.5 269.5 202.6C270 209.6 265.3 215.5 260.7 220.2C258.9 222.1 256.3 223.3 254.7 225.3C252.8 227.5 252.9 231.1 249.7 232.1C247.6 232.6 245.4 231.3 244.9 229.2C244.7 228.3 244.8 227.4 245.2 226.5C245.8 224.4 246.6 222.4 247.6 220.6C248.5 219.2 250.3 218.4 251.7 217.6C254.5 215.9 256.5 213 257 209.7C257.9 203.8 257 197.1 259.1 191.5C259.4 190.5 260 189.6 260.7 188.9C261.5 188.2 262.6 187.9 263.6 188.2C265 188.7 265.6 190.4 266.1 191.8C266.9 194.4 268.2 196.9 268.9 199.5Z" fill="#DB6352"/>
<path d="M261.2 273.8C261.9 286.4 261.7 299.3 258.3 311.6C257.3 315.3 255.6 320.5 252 322.6C248 324.9 241.7 323 238 320.9C235.5 319.6 233.3 317.7 231.7 315.4C229.2 311.7 229.1 306.9 229.4 302.4C230.2 290.4 233.1 279.3 235.5 267.6C238 254.9 241 242.3 244.4 229.7C245.8 224.4 247.7 220.4 252.2 217C255.4 214.6 260.7 211.4 261 217.7C261.8 236.3 260.2 255 261.2 273.8Z" fill="#DB6352"/>
<path d="M210.8 209.799C210.4 210.499 210.1 211.199 209.9 211.899C209.7 212.899 209.7 213.899 209.9 214.799C210.8 222.099 212.3 229.299 220.2 231.599C225.7 233.199 231.5 232.599 236.6 229.899C238.2 229.099 239.6 228.099 240.8 226.799C242.1 225.599 242.8 223.899 242.9 222.099C248.2 223.299 253.6 217.899 256.3 214.099C262.6 205.299 264.7 194.199 263.7 183.599C263.5 180.999 263.1 178.199 261.5 176.199C260.3 174.799 258.9 173.599 257.3 172.699C250.1 168.099 242.4 167.799 234.6 171.499C227.5 174.799 222.5 181.899 219.1 188.699C217.7 191.599 217.5 195.299 216.3 198.399C215 201.999 213.3 205.499 211.3 208.799L210.8 209.799Z" fill="#FF735F"/>
<path d="M220.7 172.799C222.2 169.199 224.6 166.099 227.7 163.799C233.1 159.999 240.9 160.699 247 162.099C250.5 162.899 254 164.399 257.6 164.399C260.9 164.399 264.3 161.099 267.5 162.199C268.9 162.699 270 163.899 270.3 165.399C270.8 167.799 269.3 170.099 268.2 172.299C267.4 174.099 266.4 175.799 265.4 177.399C263.8 179.499 261.5 180.999 258.9 181.399C258 181.499 257.2 181.399 256.3 181.299C251.1 180.799 246.8 179.299 242.8 183.399C240.1 186.199 238.8 189.999 236.8 193.299C236.4 194.099 235.7 194.799 235 195.399C233.9 195.899 232.7 196.199 231.5 196.299C226.4 197.499 223 206.099 217.6 204.199C213 202.599 214 198.399 215.8 195.099C218.1 190.899 217.7 185.899 218.3 181.199C218.7 178.199 219.5 175.399 220.7 172.799Z" fill="#19034D"/>
<path d="M222 192.598C220.9 194.198 220.1 196.098 219.8 197.998C219.4 199.598 219.4 201.398 219.8 202.998C220.3 204.698 221.6 205.998 223.3 206.398C224.6 206.598 226 206.098 227 205.198C229.4 203.098 232.2 196.698 231.5 193.398C230.5 188.798 224.3 189.598 222 192.598Z" fill="#FF735F"/>
<path d="M226.7 194.398C225.4 194.898 224.3 195.998 223.7 197.298C223.2 198.598 222.8 199.998 222.6 201.398" stroke="#19034D" stroke-miterlimit="10"/>
<path d="M260.6 195.3C260.7 195.9 260.4 196.6 259.7 196.7C259.1 196.8 258.4 196.4 258.3 195.8C258.2 195.2 258.5 194.6 259.2 194.4C259.9 194.3 260.5 194.7 260.6 195.3Z" fill="#19034D"/>
<path d="M247.5 196.399C247.6 196.999 247.2 197.599 246.5 197.699C245.9 197.799 245.3 197.399 245.1 196.699C245 196.099 245.4 195.499 246.1 195.299C246.8 195.299 247.4 195.699 247.5 196.399C247.5 196.299 247.5 196.299 247.5 196.399Z" fill="#19034D"/>
<path d="M230.5 292.5C230 295.7 229.6 299 229.4 302.3C229.1 306.8 229.2 311.5 231.7 315.3C233.4 317.6 235.5 319.5 238 320.8C241.7 322.9 248 324.8 252 322.5C255.5 320.5 257.2 315.2 258.3 311.5C260 305.3 261 298.9 261.3 292.5H230.5Z" fill="url(#paint1_linear_625_305)"/>
<path d="M194.6 273.1L189.1 257.5C189.2 257.9 188.1 259.6 187.9 260C187.5 260.9 187.1 261.8 186.7 262.7C185.9 264.6 185 266.4 184.2 268.2C182.7 271.7 180.9 275.2 179 278.6C177.4 278.1 175.9 277.3 174.6 276.2C174.1 279.4 173.1 282.3 172.4 285.5C172.1 287.1 171.8 288.8 171.5 290.4C171.4 291.2 171.2 292 171 292.9C170.9 293.2 170.8 295 170.6 295.2C179.1 290.2 186.9 284 193.7 276.9C194.3 276.4 194.7 275.7 194.9 274.9C195 274.3 194.9 273.7 194.6 273.1Z" fill="url(#paint2_linear_625_305)"/>
<path d="M261.5 189C259.9 188.8 258.3 189.2 256.9 190.1C256.2 190.5 256 191.3 256.3 192C256.7 192.7 257.5 192.9 258.2 192.6C259.1 192 260.2 191.7 261.3 191.9C262.1 191.9 262.7 191.2 262.7 190.4C262.7 189.7 262.2 189.1 261.5 189Z" fill="#19034D"/>
<path d="M250.1 191.199C248.1 190.299 246 190.699 244 191.199C242.5 191.599 242.8 194.099 244.4 193.699C246 193.299 247.6 192.799 249.1 193.499C250.6 194.199 251.6 191.799 250.1 191.199Z" fill="#19034D"/>
<path d="M232.5 217.898C232.4 220.498 232.3 223.098 232.2 225.698C232.2 227.098 232.1 228.398 232.1 229.798C232.1 229.998 232 230.498 232 230.998C233.6 230.698 235.2 230.198 236.7 229.598C238.9 228.798 240.8 227.198 242 225.098C242.4 224.298 242.7 223.398 242.9 222.498C239.3 221.798 235.2 220.398 232.5 217.898Z" fill="url(#paint3_linear_625_305)"/>
<path d="M205 323.799C218.5 325.399 233.5 327.199 246.5 323.299C244.5 320.199 242.2 317.299 239.6 314.699C237 312.099 233.6 310.399 229.9 309.799C228 309.599 226 309.699 224.1 309.999C220.7 310.399 216.4 312.199 213 311.899C210.2 311.699 206.5 309.299 203.8 308.199C185.7 300.999 164.2 291.299 144.3 296.499C134.3 299.099 128.3 307.499 135.2 316.899C139.1 322.199 145.3 321.199 151.4 321.299C167.8 321.599 184.3 321.399 200.6 323.299L205 323.799Z" fill="#FF735F"/>
<path d="M245.9 211.8L244.9 211.6C245.3 209.8 246.1 208.1 247.2 206.6C248.3 205 250.1 204 252 203.7C252.6 203.6 253.2 203.7 253.7 203.8C254.8 204.2 255.7 205.1 256.2 206.2L255.3 206.6C254.9 205.7 254.3 205.1 253.4 204.7C253 204.6 252.5 204.5 252.1 204.6C250.5 204.8 249 205.7 248 207.1C246.9 208.5 246.2 210.1 245.9 211.8Z" fill="#19034D"/>
<path d="M171 290.5C170.9 290.3 170.7 290 170.6 289.8C169.7 288.2 168.8 286.7 167.9 285.1C166.7 286.4 165.4 287.5 164 288.6C162.1 289.9 160.4 291.4 158.8 293.1C157.8 294.1 156.9 295.2 156 296.2C156.2 296.8 156.5 297.3 156.7 297.9C156.8 298.2 156.9 298.5 157.1 298.8C157.7 298.6 158.4 298.4 159 298.2C162.2 297.3 166.5 296 170 296.5C170.2 294.5 170.9 292.7 171.1 290.7C171 290.7 171 290.6 171 290.5Z" fill="url(#paint4_linear_625_305)"/>
<path d="M249.9 215.799C249.2 215.799 248.6 216.199 248.2 216.699C248.1 216.999 248.1 217.299 248.3 217.499C248.3 217.699 248.5 217.899 248.7 217.899C249.4 217.999 250.1 217.799 250.5 217.199C250.8 216.899 250.8 216.399 250.5 216.099C250.3 215.899 250.1 215.799 249.9 215.799Z" fill="#DB6352"/>
<path d="M250.9 188.199C250.2 187.899 249.4 187.699 248.7 187.599C248.1 187.499 248.1 188.499 248.7 188.599C249.4 188.699 250.1 188.899 250.7 189.099C251.2 189.399 251.5 188.499 250.9 188.199Z" fill="#DB6352"/>
<path d="M257.1 186.798L255.5 187.298C254.9 187.498 255.1 188.398 255.8 188.298L257.4 187.798C258 187.498 257.7 186.598 257.1 186.798Z" fill="#DB6352"/>
<path d="M142.5 47.3984H247.2C264 47.3984 277.7 60.9984 277.7 77.7984V118.598H142.5C125.7 118.598 112 104.998 112 88.1984V77.7984C112 60.9984 125.6 47.3984 142.5 47.3984Z" fill="#262B40"/>
<path d="M102.7 135.6H177.7C190.4 135.6 200.7 145.9 200.7 158.6V189.5H102.7C90.0002 189.5 79.7002 179.2 79.7002 166.5V158.6C79.7002 145.9 90.0002 135.6 102.7 135.6Z" fill="white"/>
<path d="M117.8 168.5C116.4 168.6 115 168.1 113.9 167.1C112.9 166.1 112.4 164.6 112.5 163.2C112.4 161.8 112.9 160.3 113.8 159.2C114.7 158.2 116 157.7 117.4 157.8C118.7 157.7 119.9 158.2 120.8 159C121.7 159.9 122.1 161.2 122 162.4V163.8H115.4C115.4 164.5 115.6 165.2 116.1 165.7C116.6 166.2 117.3 166.4 118 166.4C118.6 166.4 119.2 166.3 119.8 166.2C120.4 166.1 121 165.9 121.5 165.6V167.8C121 168.1 120.5 168.2 119.9 168.4C119.2 168.4 118.5 168.5 117.8 168.5ZM117.4 159.8C116.9 159.8 116.4 160 116 160.4C115.6 160.9 115.4 161.4 115.4 162H119.4C119.4 161.4 119.2 160.8 118.9 160.4C118.5 159.9 118 159.7 117.4 159.8Z" fill="#0648B3"/>
<path d="M131.9 157.799C132.2 157.799 132.5 157.799 132.8 157.899L132.6 160.499C132.3 160.399 132 160.399 131.8 160.399C131 160.399 130.3 160.599 129.7 161.099C129.2 161.599 128.9 162.299 129 162.999V168.199H126.2V157.999H128.3L128.7 159.699H128.8C129.1 159.099 129.6 158.699 130.1 158.299C130.7 157.999 131.3 157.799 131.9 157.799Z" fill="#0648B3"/>
<path d="M142.4 157.799C142.7 157.799 143.1 157.799 143.4 157.899L143.2 160.499C142.9 160.399 142.6 160.399 142.4 160.399C141.6 160.399 140.9 160.599 140.3 161.099C139.8 161.599 139.5 162.299 139.5 162.999V168.199H136.7V157.999H138.8L139.2 159.699H139.3C139.6 159.099 140.1 158.699 140.6 158.299C141.2 157.999 141.8 157.799 142.4 157.799Z" fill="#0648B3"/>
<path d="M156.5 163.1C156.6 164.5 156.1 165.9 155.2 167C154.2 168 152.9 168.5 151.5 168.4C150.6 168.4 149.7 168.2 148.9 167.8C148.1 167.4 147.5 166.7 147.1 165.9C146.7 165 146.5 164 146.5 163.1C146.4 161.7 146.9 160.3 147.8 159.2C148.8 158.2 150.1 157.7 151.5 157.8C152.4 157.8 153.3 158 154.1 158.4C154.9 158.8 155.5 159.5 155.8 160.3C156.3 161.2 156.5 162.1 156.5 163.1ZM149.4 163.1C149.3 163.9 149.5 164.7 149.9 165.4C150.3 165.9 150.9 166.2 151.5 166.2C152.1 166.3 152.8 166 153.1 165.4C153.5 164.7 153.6 163.9 153.6 163.1C153.7 162.3 153.5 161.5 153.1 160.8C152.7 160.3 152.1 160 151.5 160C150.9 159.9 150.2 160.2 149.9 160.8C149.5 161.5 149.3 162.3 149.4 163.1Z" fill="#0648B3"/>
<path d="M166.5 157.799C166.8 157.799 167.1 157.799 167.4 157.899L167.2 160.499C166.9 160.399 166.6 160.399 166.4 160.399C165.6 160.399 164.9 160.599 164.3 161.099C163.8 161.599 163.5 162.299 163.5 162.999V168.199H160.7V157.999H162.8L163.2 159.699H163.3C163.6 159.099 164.1 158.699 164.6 158.299C165.2 157.999 165.9 157.799 166.5 157.799Z" fill="#0648B3"/>
<path d="M144.8 310.9C143.5 310.9 142.2 310.8 141 310.5L141.4 308.4C145.8 309.3 152.9 308.4 154.9 304.2C155.5 302.9 155.5 301.4 154.9 300.1C154.3 298.8 153.1 297.9 151.8 297.5C149.1 296.7 145.6 297.6 143.3 298.9L142.2 297C144.7 295.6 148.9 294.3 152.4 295.4C154.3 296 155.9 297.3 156.8 299.1C157.7 301 157.7 303.2 156.8 305.1C154.8 309.4 149.4 310.9 144.8 310.9Z" fill="#0648B3"/>
<path d="M113.5 290.199H148.3V304.399C148.3 311.999 142.2 318.099 134.6 318.099H127.2C119.6 318.099 113.5 311.999 113.5 304.399V290.199Z" fill="#262B40"/>
<path d="M158 320.2H104.4C103.5 320.2 102.8 319.5 102.8 318.6C102.8 317.7 103.5 317 104.4 317H158C158.9 317 159.6 317.7 159.6 318.6C159.6 319.5 158.9 320.2 158 320.2Z" fill="white"/>
<mask id="mask0_625_305" style="mask-type:luminance" maskUnits="userSpaceOnUse" x="326" y="228" width="52" height="80">
<path d="M360.1 284.299C360.4 282.399 361 280.699 362.6 279.799C364.8 278.499 367.6 279.599 370.2 279.099C377.3 277.799 377.2 267.899 377.1 262.499C377 258.999 376.9 255.599 376.6 252.099C376.6 251.199 376.4 250.299 376 249.499C375 248.099 373.2 247.599 371.6 248.099C368.5 248.999 366.8 252.299 366.2 255.499C365.6 258.699 365.9 261.999 365.1 265.099C365 265.699 364.7 266.299 364.4 266.799C364 267.399 363.5 267.799 362.9 268.099C362 268.599 360.9 268.599 360 268.099C359 267.499 359.2 266.699 359.2 265.699C359.2 264.499 359.1 263.399 358.9 262.199C358.6 259.599 358.3 256.999 358.1 254.399C357.6 249.299 357.2 244.199 356.7 238.999C356.6 236.599 356 234.299 355 232.099C349.9 222.999 342.2 230.999 341.5 237.599C339.9 252.699 347.7 266.899 347.1 281.899C347.1 282.499 347 283.199 346.7 283.799C345.5 286.199 341.7 285.799 340 284.399C337.3 282.299 338.2 277.599 338.2 274.899C338.2 272.599 337.5 270.099 335.3 268.999C332.8 267.799 329.6 269.199 328.2 271.499C326.4 274.399 326.6 279.299 326.8 282.499C326.9 284.799 327.6 287.099 328.9 289.099C330.3 291.199 332.6 292.499 335 292.699C336.5 292.799 338.1 292.499 339.2 293.399C340.6 294.499 340.1 296.399 340.1 297.999C340.2 301.199 343 303.999 346.2 305.399C349.4 306.799 353.1 306.999 356.6 307.199C359.6 302.399 359.8 296.799 360 291.399C359.9 288.999 359.9 286.699 360.1 284.299Z" fill="white"/>
</mask>
<g mask="url(#mask0_625_305)">
<path d="M360.1 284.299C360.4 282.399 361 280.699 362.6 279.799C364.8 278.499 367.6 279.599 370.2 279.099C377.3 277.799 377.2 267.899 377.1 262.499C377 258.999 376.9 255.599 376.6 252.099C376.6 251.199 376.4 250.299 376 249.499C375 248.099 373.2 247.599 371.6 248.099C368.5 248.999 366.8 252.299 366.2 255.499C365.6 258.699 365.9 261.999 365.1 265.099C365 265.699 364.7 266.299 364.4 266.799C364 267.399 363.5 267.799 362.9 268.099C362 268.599 360.9 268.599 360 268.099C359 267.499 359.2 266.699 359.2 265.699C359.2 264.499 359.1 263.399 358.9 262.199C358.6 259.599 358.3 256.999 358.1 254.399C357.6 249.299 357.2 244.199 356.7 238.999C356.6 236.599 356 234.299 355 232.099C349.9 222.999 342.2 230.999 341.5 237.599C339.9 252.699 347.7 266.899 347.1 281.899C347.1 282.499 347 283.199 346.7 283.799C345.5 286.199 341.7 285.799 340 284.399C337.3 282.299 338.2 277.599 338.2 274.899C338.2 272.599 337.5 270.099 335.3 268.999C332.8 267.799 329.6 269.199 328.2 271.499C326.4 274.399 326.6 279.299 326.8 282.499C326.9 284.799 327.6 287.099 328.9 289.099C330.3 291.199 332.6 292.499 335 292.699C336.5 292.799 338.1 292.499 339.2 293.399C340.6 294.499 340.1 296.399 340.1 297.999C340.2 301.199 343 303.999 346.2 305.399C349.4 306.799 353.1 306.999 356.6 307.199C359.6 302.399 359.8 296.799 360 291.399C359.9 288.999 359.9 286.699 360.1 284.299Z" fill="#228F4E"/>
<path d="M350.6 228.5C354.2 253.5 357.3 279 352.9 303.9" stroke="#19034D" stroke-miterlimit="10"/>
<path d="M347.1 228.398C346.1 233.098 345.1 237.798 345.1 242.498C345.1 251.598 349 260.198 350.5 269.198C352.2 279.198 350.9 289.398 349.7 299.498" stroke="#19034D" stroke-miterlimit="10"/>
<path d="M354.9 272.599C359.3 271.999 364.5 271.399 367.2 267.899C367.6 267.399 367.9 266.899 368.1 266.299C368.8 263.899 368.5 261.299 368.5 258.799C368.5 256.399 368.5 252.399 368.5 249.299" stroke="#19034D" stroke-miterlimit="10"/>
<path d="M351 289.198C347.1 289.798 342.8 290.398 339.4 288.498C337.4 287.298 335.9 285.398 335.2 283.198C334.5 281.098 334.2 278.798 334.3 276.598C334.3 274.198 334.5 271.798 334.9 269.398" stroke="#19034D" stroke-miterlimit="10"/>
<path d="M355 276.6C360 275.9 364.8 274.6 369.5 272.8C370.5 272.5 371.4 272 372.2 271.3C372.9 270.5 373.4 269.5 373.6 268.5C374.3 266.2 374.6 250.7 373.8 247" stroke="#19034D" stroke-miterlimit="10"/>
</g>
<path d="M336.4 298.799L365.8 298.199L362.8 319.999H340.4L336.4 298.799Z" fill="#F5BA00"/>
<path d="M205.2 315.6H329C330.4 315.6 331.5 316.7 331.5 318.1V319C331.5 320.4 330.4 321.5 329 321.5H205.2C203.8 321.5 202.7 320.4 202.7 319V318.1C202.7 316.7 203.8 315.6 205.2 315.6Z" fill="white"/>
<path d="M331.9 321.398H221.9L231.5 258.198C231.8 255.998 233.7 254.398 235.9 254.398H337.2C339.6 254.398 341.5 256.398 341.4 258.698C341.4 258.898 341.4 259.098 341.3 259.398L331.9 321.398Z" fill="white"/>
<path d="M286.9 288.7C289.827 288.7 292.2 286.327 292.2 283.4C292.2 280.472 289.827 278.1 286.9 278.1C283.973 278.1 281.6 280.472 281.6 283.4C281.6 286.327 283.973 288.7 286.9 288.7Z" stroke="#0648B3" stroke-width="2" stroke-miterlimit="10"/>
<path d="M292.3 249.499C291.6 246.599 291.3 243.599 291.3 240.699C291.3 237.799 291.8 235.699 293.7 233.499C295.1 231.799 296.7 230.299 298.4 228.899C302.8 225.199 304.4 219.099 302.4 213.799" stroke="white" stroke-width="2" stroke-miterlimit="10"/>
<path d="M301.6 240.999C301 238.499 302.4 235.999 304.1 234.099C305.8 232.199 308 230.699 309.5 228.699C312.7 224.299 312.6 220.199 312 211.999C311.6 206.199 311.7 199.699 315.8 195.699" stroke="white" stroke-width="2" stroke-miterlimit="10"/>
<path d="M48.9004 319.299H368.3C370 319.299 371.3 320.599 371.3 322.299V323.299C371.3 324.999 370 326.299 368.3 326.299H48.9004C47.2004 326.299 45.9004 324.999 45.9004 323.299V322.299C45.9004 320.599 47.2004 319.299 48.9004 319.299Z" fill="#262B40"/>
<path d="M401 137.699C403.5 153.399 404.5 170.199 397.3 184.399C393.3 192.299 387 198.799 383.4 206.999C379.6 215.699 378.2 224.699 377.3 234.099" stroke="#E1E8F6" stroke-width="2" stroke-miterlimit="10"/>
<path d="M77.3002 111.5C67.3002 123.6 52.5002 130.4 40.5002 140.5C20.9002 157.2 9.80017 181.7 10.1002 207.4" stroke="#E1E8F6" stroke-width="2" stroke-miterlimit="10"/>
<path d="M296.3 11.2988C312.8 16.5988 326.3 28.5988 333.5 44.2988" stroke="#E1E8F6" stroke-width="2" stroke-miterlimit="10"/>
<path d="M68.7002 345.799C91.0002 365.199 119 376.799 148.5 378.799" stroke="#E1E8F6" stroke-width="2" stroke-miterlimit="10"/>
<path d="M288.1 351.6C293.5 349.2 298.7 346.5 303.8 343.6" stroke="#E1E8F6" stroke-width="2" stroke-miterlimit="10"/>
<path d="M215.1 366.299C236.4 365.399 254.8 364.299 277.8 355.299" stroke="#E1E8F6" stroke-width="2" stroke-miterlimit="10"/>
<path d="M146.494 93.3402V88.9936L165.67 58.6527H168.824V65.3857H166.693L152.205 88.3118V88.6527H178.028V93.3402H146.494ZM167.034 102.289V92.0192V89.995V58.6527H172.062V102.289H167.034ZM200.246 102.886C197.036 102.886 194.301 102.012 192.043 100.265C189.784 98.5036 188.059 95.9538 186.865 92.6158C185.672 89.2635 185.076 85.2152 185.076 80.4709C185.076 75.755 185.672 71.728 186.865 68.3899C188.073 65.0376 189.806 62.4808 192.064 60.7195C194.337 58.9439 197.064 58.0561 200.246 58.0561C203.428 58.0561 206.148 58.9439 208.407 60.7195C210.679 62.4808 212.412 65.0376 213.605 68.3899C214.813 71.728 215.417 75.755 215.417 80.4709C215.417 85.2152 214.82 89.2635 213.627 92.6158C212.434 95.9538 210.708 98.5036 208.449 100.265C206.191 102.012 203.456 102.886 200.246 102.886ZM200.246 98.1982C203.428 98.1982 205.9 96.6641 207.661 93.5959C209.422 90.5277 210.303 86.1527 210.303 80.4709C210.303 76.6925 209.898 73.4751 209.088 70.8189C208.293 68.1626 207.142 66.1385 205.637 64.7464C204.145 63.3544 202.348 62.6584 200.246 62.6584C197.093 62.6584 194.628 64.2138 192.853 67.3246C191.077 70.4212 190.189 74.8033 190.189 80.4709C190.189 84.2493 190.587 87.4595 191.382 90.1016C192.178 92.7436 193.321 94.7536 194.813 96.1314C196.319 97.5092 198.13 98.1982 200.246 98.1982ZM238.854 58.6527V102.289H233.57V64.1925H233.314L222.661 71.2663V65.897L233.57 58.6527H238.854Z" fill="white"/>
<defs>
<linearGradient id="paint0_linear_625_305" x1="78.3522" y1="310.597" x2="110.882" y2="295.707" gradientUnits="userSpaceOnUse">
<stop stop-color="#EE5050" stop-opacity="0.91"/>
<stop offset="0.56" stop-color="#311573" stop-opacity="0"/>
</linearGradient>
<linearGradient id="paint1_linear_625_305" x1="233.61" y1="326.142" x2="247.82" y2="295.172" gradientUnits="userSpaceOnUse">
<stop stop-color="#201B59" stop-opacity="0.91"/>
<stop offset="0.56" stop-color="#FFCC00" stop-opacity="0"/>
</linearGradient>
<linearGradient id="paint2_linear_625_305" x1="173.554" y1="270.296" x2="190.474" y2="286.566" gradientUnits="userSpaceOnUse">
<stop stop-color="#201B59" stop-opacity="0.91"/>
<stop offset="0.56" stop-color="#FFCC00" stop-opacity="0"/>
</linearGradient>
<linearGradient id="paint3_linear_625_305" x1="240.299" y1="215.643" x2="231.982" y2="231.617" gradientUnits="userSpaceOnUse">
<stop offset="0.27" stop-color="#201B59" stop-opacity="0.91"/>
<stop offset="0.56" stop-color="#FF735F" stop-opacity="0"/>
</linearGradient>
<linearGradient id="paint4_linear_625_305" x1="168.413" y1="303.528" x2="159.713" y2="285.868" gradientUnits="userSpaceOnUse">
<stop offset="0.27" stop-color="#201B59" stop-opacity="0.91"/>
<stop offset="0.56" stop-color="#FF735F" stop-opacity="0"/>
</linearGradient>
</defs>
</svg>
