<svg width="685" height="418" viewBox="0 0 685 418" fill="none" xmlns="http://www.w3.org/2000/svg">
<g clip-path="url(#clip0_625_204)">
<mask id="mask0_625_204" style="mask-type:luminance" maskUnits="userSpaceOnUse" x="0" y="0" width="685" height="418">
<path d="M684.7 0H0V417.6H684.7V0Z" fill="white"/>
</mask>
<g mask="url(#mask0_625_204)">
<path fill-rule="evenodd" clip-rule="evenodd" d="M373.4 37.201C373.5 36.701 373.1 36.201 372.6 36.201C372.1 36.101 371.6 36.501 371.6 37.001C371.6 37.101 371.6 37.101 371.6 37.201V39.401H369.5C369 39.501 368.6 39.901 368.7 40.401C368.7 40.801 369.1 41.201 369.5 41.201H371.6V43.401C371.7 43.901 372.1 44.301 372.6 44.201C373 44.201 373.4 43.801 373.4 43.401V41.201H375.5C376 41.301 376.5 40.901 376.5 40.401C376.6 39.901 376.2 39.401 375.7 39.401C375.6 39.401 375.6 39.401 375.5 39.401H373.4V37.201Z" fill="#9FB2D9"/>
<path fill-rule="evenodd" clip-rule="evenodd" d="M142.3 291.7H82.3001C49.9001 291.8 23.7001 318 23.6001 350.4C23.7001 382.8 49.9001 409 82.3001 409.1H589.7C642 409.1 684.8 366.3 684.8 314C684.8 261.7 642 218.9 589.7 218.9C567.5 218.8 549.6 200.9 549.5 178.7C549.6 156.5 567.5 138.6 589.7 138.5H638C661.1 138.4 679.7 119.8 679.8 96.7C679.8 73.7 661.1 55.1 638 55H576.8C567.8 55 560.6 47.7 560.5 38.7C560.5 29.7 567.8 22.5 576.8 22.4H587.6C593.8 22.4 598.8 17.4 598.8 11.2C598.8 5 593.8 0 587.6 0H516.8C501.9 0 500.2 17.6 462.6 17.6H375.3C367.2 17.6 360.7 24.2 360.7 32.3C360.7 40.4 367.3 46.9 375.3 47H389.4C401.1 47 410.6 56.5 410.6 68.2C410.6 79.9 401.1 89.4 389.4 89.4H347C289.8 89.4 281.7 104.3 271.7 134.1C261.7 163.9 209.7 166.2 209.7 166.2H138.5C120.8 166.2 106.5 180.5 106.5 198.2C106.5 215.9 120.8 230.2 138.5 230.2H142.2C159.2 230.2 172.9 244 173 261C173 277.9 159.3 291.7 142.3 291.7ZM619.2 22.5C613 22.5 608 17.5 608 11.3C607.9 5 613 0 619.2 0C625.4 0 630.4 5 630.4 11.2C630.4 17.4 625.4 22.5 619.2 22.5Z" fill="#E1E8F6"/>
<path fill-rule="evenodd" clip-rule="evenodd" d="M214.2 351.8C214.2 351.8 192.5 340.6 196.5 313.2C200.5 285.8 183.7 277.1 179.4 268.9C175.1 260.7 184.7 247.6 183.6 236C182.5 224.4 169.2 221.4 175.4 205.6C181.6 189.8 176.4 183.8 168.2 166.8C160 149.8 172.1 124 177.9 124.1C183.7 124.2 176.6 130.3 181.7 141.6C186.8 152.9 208.2 156.3 214.9 165.7C221.6 175.1 209.8 187.6 217.5 200.3C225.2 213 247.9 209.1 254 221.4C260.1 233.7 245.7 248.5 249.8 261.5C254 274.4 269.4 281.8 275.8 292.1C282.2 302.4 294.4 322.4 274.6 346.1C254.8 369.8 214.2 351.8 214.2 351.8Z" fill="#9FB2D9"/>
<path fill-rule="evenodd" clip-rule="evenodd" d="M175.6 147.599C175.4 146.899 175.8 146.099 176.5 145.799C177.2 145.599 177.9 145.899 178.2 146.599L267.9 379.499L264.5 378.599L175.6 147.599Z" fill="#B4C5E6"/>
<path fill-rule="evenodd" clip-rule="evenodd" d="M196.2 324C196.1 322.9 196 321.8 196 320.6L254.9 353.7L249.7 340.2C249.7 340.1 249.7 340.1 249.6 340L246.9 333L197 305C197 303.9 197 302.8 196.9 301.7L245.3 328.9L240.6 316.7L194.5 290.8C193.9 289.3 193.3 287.8 192.5 286.4L239 312.5L236.7 306.4C236.7 306.3 236.6 306.3 236.6 306.2L226.4 279.6L180.3 253.7C180.6 252.8 180.9 251.9 181.1 250.9L224.8 275.5L219.7 262.2L183.4 241.8C183.6 240.8 183.7 239.8 183.7 238.7L218.1 258.1L214.3 248.1C214.3 248.1 214.3 248 214.2 248L203 219L176 203.9C176.3 203 176.6 202 176.9 201.2L201.4 215L191.6 189.7C191.6 189.7 191.6 189.6 191.5 189.6L175.4 147.8C175.2 147.1 175.6 146.3 176.3 146C177 145.8 177.7 146.1 178 146.8L192.6 184.8L201 156.3C201.9 156.7 202.7 157.2 203.6 157.6L194.4 189.2L205.4 217.7V217.8L215.6 244.2L231.6 209.8C232.5 210.1 233.4 210.4 234.3 210.6L217 247.7L220.9 257.8L242 212.8C242.9 213.1 243.8 213.4 244.7 213.8L222.6 260.8L222.9 261C223.6 261.4 223.8 262.2 223.4 262.9C223.3 263.1 223.1 263.3 223 263.4L228.7 278.2C228.7 278.2 228.7 278.3 228.8 278.3L238 302.3L253.7 269C254.3 269.8 255 270.7 255.7 271.5L239.5 306L241.9 312.2L259.3 275.2C260 275.9 260.7 276.6 261.5 277.2L243.3 315.7L249.4 331.5V331.6L251.1 336L273.3 288.7C274 289.5 274.6 290.3 275.2 291.2L252.4 339.7L258.8 356.3V356.4C257.7 356.8 256.6 357 255.4 357.3L196.2 324Z" fill="#B4C5E6"/>
<path fill-rule="evenodd" clip-rule="evenodd" d="M204.1 409.3C198.1 404.7 192 402.5 188.8 399.5C182.3 393.5 186.7 378.6 182 368.6C177.3 358.6 164.3 360.1 164.9 343.8C165.5 327.5 158.7 323.9 145.9 311.3C133.1 298.7 135.7 271.5 140.9 269.8C146.1 268.1 141.8 275.8 149.9 284.3C158 292.8 178.5 289 187.5 295.3C196.5 301.6 190 316.6 200.9 325.6C211.8 334.6 231.1 323.7 240.5 332.9C249.9 342.1 241.7 360 249.6 370.3C257.5 380.6 273.7 382.2 282.9 389.5C288.1 393.6 295.8 399.8 299.8 409.4L204.1 409.3Z" fill="#C0CDEA"/>
<path fill-rule="evenodd" clip-rule="evenodd" d="M247.5 409.3L234.5 394.2L184.7 385.7C184.7 384.8 184.6 383.9 184.6 382.9L231.8 390.9L222.9 380.6L183.6 373.9C183.4 372.9 183.2 372 182.9 371L220.1 377.3L213.4 369.5L213.3 369.4L194 347.1L164.9 342.1C164.9 341.1 164.9 340.2 164.8 339.3L191.3 343.8L174.3 324.2L174.2 324.1L146.3 291.7C145.9 291.1 146.1 290.2 146.7 289.8C147.2 289.5 147.8 289.5 148.3 289.9L173.7 319.4L172 291L174.7 291.4L176.6 322.8L195.7 345L195.8 345.1L213.4 365.6L216.8 329.5L219.5 329.4L215.9 368.5L222.6 376.3L227.2 329C228.1 329 229 329 229.9 329L225.1 378.4L225.5 378.5C226.2 378.6 226.7 379.3 226.6 380C226.6 380.2 226.5 380.4 226.4 380.6L236.3 392.1L236.4 392.2L251.2 409.4L247.5 409.3ZM252.5 409.3L255.7 375.7C256.5 376.3 257.4 376.8 258.2 377.3L255.1 409.3H252.5ZM259.8 409.3L262.7 379.5C263.6 379.9 264.4 380.3 265.3 380.6L262.5 409.2H259.8V409.3ZM277.5 409.3L279.6 387.1C280.5 387.6 281.3 388.2 282.1 388.7L280.1 409.2L277.5 409.3Z" fill="#E1E8F6"/>
<path fill-rule="evenodd" clip-rule="evenodd" d="M22.8997 417.6H17.3997C15.0997 417.6 13.1997 415.8 13.1997 413.5C13.1997 411.2 15.0997 409.4 17.2997 409.4H22.7997C25.0997 409.4 26.8997 411.3 26.8997 413.5C26.9997 415.7 25.1997 417.6 22.8997 417.6Z" fill="#00000F"/>
<path fill-rule="evenodd" clip-rule="evenodd" d="M36.2 417.6H635.5C637.8 417.6 639.6 415.7 639.6 413.5C639.6 411.2 637.7 409.4 635.5 409.4H36.2C33.9 409.4 32.1 411.3 32.1 413.5C32 415.7 33.9 417.6 36.2 417.6Z" fill="#00000F"/>
<path fill-rule="evenodd" clip-rule="evenodd" d="M662.7 229.2C662.7 228.6 662.2 228.1 661.6 228.1C661 228.1 660.5 228.6 660.5 229.2V231.9H657.8C657.2 231.9 656.7 232.4 656.7 233C656.7 233.6 657.2 234.1 657.8 234.1H660.5V236.8C660.5 237.4 661 237.9 661.6 237.9C662.2 237.9 662.7 237.4 662.7 236.8V234.1H665.4C666 234.1 666.5 233.6 666.5 233C666.5 232.4 666 231.9 665.4 231.9H662.7V229.2Z" fill="#9FB2D9"/>
<path fill-rule="evenodd" clip-rule="evenodd" d="M416.3 215.301H348.3C345.8 215.301 343.8 217.301 343.8 219.801C343.8 222.301 345.8 224.301 348.3 224.301H416.3C418.8 224.301 420.8 222.301 420.8 219.801C420.8 217.301 418.8 215.301 416.3 215.301Z" fill="#00000F"/>
<path fill-rule="evenodd" clip-rule="evenodd" d="M414 183.301H382.5C382.2 183.301 382 183.501 382 183.801L376.4 223.801C376.4 224.001 376.5 224.201 376.7 224.301H376.8H419.8C420 224.301 420.2 224.101 420.2 223.901V223.801L414.6 183.801C414.4 183.501 414.2 183.301 414 183.301Z" fill="#3B405F"/>
<path fill-rule="evenodd" clip-rule="evenodd" d="M432.8 215.301H364.8C362.3 215.301 360.3 217.301 360.3 219.801C360.3 222.301 362.3 224.301 364.8 224.301H432.8C435.3 224.301 437.3 222.301 437.3 219.801C437.3 217.301 435.3 215.301 432.8 215.301Z" fill="#3B405F"/>
<path d="M316.3 95.0996H467.1C468.4 95.0996 469.4 96.0996 469.4 97.3996V198.2C469.4 199.5 468.4 200.5 467.1 200.5H316.3C315 200.5 314 199.5 314 198.2V97.3996C313.9 96.0996 315 95.0996 316.3 95.0996Z" fill="#00000F"/>
<path d="M323.6 95.0996H474.4C475.7 95.0996 476.7 96.0996 476.7 97.3996V198.3C476.7 199.6 475.7 200.6 474.4 200.6H323.6C322.3 200.6 321.3 199.6 321.3 198.3V97.3996C321.3 96.0996 322.4 95.0996 323.6 95.0996Z" fill="#3B405F"/>
<path fill-rule="evenodd" clip-rule="evenodd" d="M473.2 96.5996H324.9C324.1 96.5996 323.4 97.2996 323.4 98.0996V189C323.4 189.6 323.8 190 324.4 190H473.8C474.4 190 474.8 189.6 474.8 189V98.0996C474.8 97.2996 474.1 96.5996 473.2 96.5996Z" fill="#101537"/>
<path d="M470.3 100.9H327.7V185.6H470.3V100.9Z" fill="#F8BD7A"/>
<path d="M345.494 156.051V151.705L364.67 121.364H367.824V128.097H365.693L351.205 151.023V151.364H377.028V156.051H345.494ZM366.034 165V154.73V152.706V121.364H371.062V165H366.034ZM399.768 121.364V165H394.484V126.903H394.228L383.575 133.977V128.608L394.484 121.364H399.768ZM426.21 120.767C428 120.781 429.789 121.122 431.579 121.79C433.369 122.457 435.002 123.565 436.48 125.114C437.957 126.648 439.143 128.743 440.038 131.399C440.933 134.055 441.38 137.386 441.38 141.392C441.38 145.27 441.011 148.714 440.272 151.726C439.548 154.723 438.497 157.251 437.119 159.311C435.755 161.371 434.093 162.933 432.133 163.999C430.187 165.064 427.985 165.597 425.528 165.597C423.085 165.597 420.904 165.114 418.987 164.148C417.083 163.168 415.521 161.811 414.299 160.078C413.092 158.331 412.318 156.307 411.977 154.006H417.176C417.645 156.009 418.575 157.663 419.967 158.97C421.373 160.263 423.227 160.909 425.528 160.909C428.895 160.909 431.551 159.439 433.497 156.499C435.457 153.558 436.437 149.403 436.437 144.034H436.096C435.301 145.227 434.356 146.257 433.262 147.124C432.169 147.99 430.954 148.658 429.619 149.126C428.284 149.595 426.863 149.83 425.358 149.83C422.858 149.83 420.564 149.212 418.475 147.976C416.402 146.726 414.74 145.014 413.49 142.841C412.254 140.653 411.636 138.153 411.636 135.341C411.636 132.67 412.233 130.227 413.426 128.011C414.633 125.781 416.324 124.006 418.497 122.685C420.684 121.364 423.255 120.724 426.21 120.767ZM426.21 125.455C424.42 125.455 422.808 125.902 421.373 126.797C419.953 127.678 418.824 128.871 417.985 130.376C417.162 131.868 416.75 133.523 416.75 135.341C416.75 137.159 417.147 138.814 417.943 140.305C418.752 141.783 419.853 142.962 421.245 143.842C422.652 144.709 424.25 145.142 426.039 145.142C427.389 145.142 428.646 144.879 429.811 144.354C430.975 143.814 431.991 143.082 432.858 142.159C433.738 141.222 434.427 140.163 434.924 138.984C435.422 137.791 435.67 136.548 435.67 135.256C435.67 133.551 435.258 131.953 434.434 130.462C433.625 128.97 432.502 127.763 431.068 126.839C429.647 125.916 428.028 125.455 426.21 125.455Z" fill="white"/>
<path fill-rule="evenodd" clip-rule="evenodd" d="M385.8 204.7L384.3 215.3H377.5L379.6 200.6H416.9L417.4 204.3H386.4C386.1 204.2 385.9 204.4 385.8 204.7Z" fill="#101537"/>
<path d="M470.8 100.9H327.7V105.8H470.8V100.9Z" fill="white"/>
<path d="M364.6 102H328.6V104.8H364.6V102Z" fill="#E4E1E8"/>
<path fill-rule="evenodd" clip-rule="evenodd" d="M362.8 104.001C363.1 104.001 363.4 103.701 363.4 103.401C363.4 103.101 363.1 102.801 362.8 102.801C362.5 102.801 362.2 103.101 362.2 103.401C362.2 103.701 362.5 104.001 362.8 104.001Z" fill="#D64C47"/>
<path fill-rule="evenodd" clip-rule="evenodd" d="M361 104.001C361.3 104.001 361.6 103.701 361.6 103.401C361.6 103.101 361.3 102.801 361 102.801C360.7 102.801 360.4 103.101 360.4 103.401C360.4 103.701 360.6 104.001 361 104.001Z" fill="#D64C47"/>
<path fill-rule="evenodd" clip-rule="evenodd" d="M359.1 104.001C359.4 104.001 359.7 103.701 359.7 103.401C359.7 103.101 359.4 102.801 359.1 102.801C358.8 102.801 358.5 103.101 358.5 103.401C358.5 103.701 358.8 104.001 359.1 104.001Z" fill="#D64C47"/>
<path d="M402.3 102H366.3V104.8H402.3V102Z" fill="#E4E1E8"/>
<path fill-rule="evenodd" clip-rule="evenodd" d="M400.5 104.001C400.8 104.001 401.1 103.601 401 103.301C401 103.001 400.7 102.801 400.5 102.801C400.2 102.801 399.8 103.001 399.8 103.301C399.8 103.601 400 104.001 400.3 104.001C400.4 104.001 400.4 104.001 400.5 104.001Z" fill="#D64C47"/>
<path fill-rule="evenodd" clip-rule="evenodd" d="M398.6 104.001C398.9 104.001 399.2 103.601 399.1 103.301C399.1 103.001 398.8 102.801 398.6 102.801C398.3 102.801 397.9 103.001 397.9 103.301C397.9 103.601 398.1 104.001 398.4 104.001C398.5 104.001 398.6 104.001 398.6 104.001Z" fill="#D64C47"/>
<path fill-rule="evenodd" clip-rule="evenodd" d="M396.8 104.001C397.1 104.001 397.4 103.701 397.4 103.401C397.4 103.101 397.1 102.801 396.8 102.801C396.5 102.801 396.2 103.101 396.2 103.401C396.1 103.701 396.4 104.001 396.8 104.001Z" fill="#D64C47"/>
<path fill-rule="evenodd" clip-rule="evenodd" d="M348.2 175.699H449.9C450.3 175.699 450.7 175.999 450.7 176.499C450.7 176.899 450.4 177.299 449.9 177.299H348.2C347.8 177.299 347.4 176.999 347.4 176.499C347.4 175.999 347.8 175.699 348.2 175.699Z" fill="white"/>
<path fill-rule="evenodd" clip-rule="evenodd" d="M398 210.801H486.4C491.4 210.801 495.4 214.801 495.4 219.801C495.4 224.801 491.4 228.801 486.4 228.801H398C393 228.801 389 224.801 389 219.801C389 214.801 393 210.801 398 210.801Z" fill="#101537"/>
<path fill-rule="evenodd" clip-rule="evenodd" d="M381.1 210.801H422.1C427.1 210.801 431.1 214.801 431.1 219.801C431.1 224.801 427.1 228.801 422.1 228.801H381.1C376.1 228.801 372.1 224.801 372.1 219.801C372.1 214.801 376.1 210.801 381.1 210.801Z" fill="#070725"/>
<path d="M335.4 225.5H609.6C612.4 225.5 614.6 227.8 614.6 230.5V254C614.6 256.8 612.3 259 609.6 259H335.4C332.6 259 330.4 256.7 330.4 254V230.5C330.4 227.7 332.7 225.5 335.4 225.5Z" fill="#101537"/>
<path fill-rule="evenodd" clip-rule="evenodd" d="M335.3 225.5H609.8C612.5 225.6 614.7 227.8 614.7 230.5V239.7C614.7 242.4 612.5 244.6 609.8 244.7H335.3C332.6 244.6 330.4 242.4 330.4 239.7V230.5C330.4 227.8 332.6 225.5 335.3 225.5Z" fill="#00000F"/>
<path d="M260.1 225.9H336C338.9 225.9 341.2 228.2 341.2 231.1V403.9C341.2 406.8 338.9 409.1 336 409.1H260.1C257.2 409.1 254.9 406.8 254.9 403.9V231.1C254.9 228.2 257.2 225.9 260.1 225.9Z" fill="#00000F"/>
<path d="M335 225.9H402.9C405.5 225.9 407.6 228 407.6 230.6V404.5C407.6 407.1 405.5 409.2 402.9 409.2H335C332.4 409.2 330.3 407.1 330.3 404.5V230.6C330.4 228 332.4 225.9 335 225.9Z" fill="#101537"/>
<path d="M332.1 219.801H626.4C627.3 219.801 628.1 220.601 628.1 221.501V229.501C628.1 230.401 627.3 231.201 626.4 231.201H332.1C331.2 231.201 330.4 230.401 330.4 229.501V221.501C330.4 220.501 331.2 219.801 332.1 219.801Z" fill="#D58750"/>
<path d="M247.7 219.801H331.7C332.6 219.801 333.4 220.601 333.4 221.501V229.501C333.4 230.401 332.6 231.201 331.7 231.201H247.7C246.8 231.201 246 230.401 246 229.501V221.501C246 220.501 246.8 219.801 247.7 219.801Z" fill="#B56B41"/>
<path d="M340 237H397.9C400 237 401.8 238.7 401.8 240.9V285.8C401.8 287.9 400.1 289.7 397.9 289.7H340C337.9 289.7 336.1 288 336.1 285.8V240.9C336.1 238.7 337.9 237 340 237Z" fill="white"/>
<path fill-rule="evenodd" clip-rule="evenodd" d="M401.8 286.3H344.7C343.2 286.3 341.9 285.5 341.2 284.1C340.9 283.6 340.8 283 340.8 282.4V237.5C340.8 237.3 340.8 237.1 340.8 236.9H340C337.9 236.9 336.1 238.6 336.1 240.8V285.7C336.1 287.8 337.8 289.6 340 289.6H397.9C399.8 289.6 401.5 288.2 401.8 286.3Z" fill="#E4E1E8"/>
<path d="M355 240.1H383C383.8 240.1 384.5 240.8 384.5 241.6V242.1C384.5 242.9 383.8 243.6 383 243.6H355C354.2 243.6 353.5 242.9 353.5 242.1V241.6C353.5 240.7 354.2 240.1 355 240.1Z" fill="#070725"/>
<path d="M340 292.4H397.9C400 292.4 401.8 294.1 401.8 296.3V341.2C401.8 343.3 400.1 345.1 397.9 345.1H340C337.9 345.1 336.1 343.4 336.1 341.2V296.3C336.1 294.2 337.9 292.4 340 292.4Z" fill="white"/>
<path fill-rule="evenodd" clip-rule="evenodd" d="M401.8 341.8H344.7C343.2 341.8 341.9 341 341.2 339.6C340.9 339.1 340.8 338.5 340.8 337.9V293C340.8 292.8 340.8 292.6 340.8 292.4H340C337.9 292.4 336.1 294.1 336.1 296.3V341.2C336.1 343.3 337.8 345.1 340 345.1H397.9C399.9 345.1 401.5 343.7 401.8 341.8Z" fill="#E4E1E8"/>
<path d="M355 295.5H383C383.8 295.5 384.5 296.2 384.5 297V297.5C384.5 298.3 383.8 299 383 299H355C354.2 299 353.5 298.3 353.5 297.5V297C353.5 296.2 354.2 295.5 355 295.5Z" fill="#070725"/>
<path d="M340 347.9H397.9C400 347.9 401.8 349.6 401.8 351.8V396.7C401.8 398.8 400.1 400.6 397.9 400.6H340C337.9 400.6 336.1 398.9 336.1 396.7V351.8C336.1 349.6 337.9 347.9 340 347.9Z" fill="white"/>
<path fill-rule="evenodd" clip-rule="evenodd" d="M401.8 397.201H344.7C343.2 397.201 341.9 396.401 341.2 395.001C340.9 394.501 340.8 393.901 340.8 393.301V348.401C340.8 348.201 340.8 348.001 340.8 347.801H340C337.9 347.801 336.1 349.601 336.1 351.701V396.601C336.1 398.701 337.8 400.501 340 400.501H397.9C399.9 400.501 401.5 399.101 401.8 397.201Z" fill="#E4E1E8"/>
<path d="M355 351H383C383.8 351 384.5 351.7 384.5 352.5V353C384.5 353.8 383.8 354.5 383 354.5H355C354.2 354.5 353.5 353.8 353.5 353V352.5C353.5 351.6 354.2 351 355 351Z" fill="#070725"/>
<path d="M558.1 225.9H568.6C568.9 225.9 569.1 226.1 569.1 226.4V410.9C569.1 411.2 568.9 411.4 568.6 411.4H558.1C557.8 411.4 557.6 411.2 557.6 410.9V226.4C557.7 226.1 557.9 225.9 558.1 225.9Z" fill="#AEABBA"/>
<path d="M565.2 225.9H568.5C569.8 225.9 570.8 226.9 570.8 228.2V409C570.8 410.3 569.8 411.3 568.5 411.3H565.2C563.9 411.3 562.9 410.3 562.9 409V228.2C562.9 226.9 563.9 225.9 565.2 225.9Z" fill="white"/>
<path d="M607.2 225.9H617.7C618 225.9 618.2 226.1 618.2 226.4V410.9C618.2 411.2 618 411.4 617.7 411.4H607.2C606.9 411.4 606.7 411.2 606.7 410.9V226.4C606.7 226.1 606.9 225.9 607.2 225.9Z" fill="#AEABBA"/>
<path d="M614.3 225.9H617.6C618.9 225.9 619.9 226.9 619.9 228.2V409C619.9 410.3 618.9 411.3 617.6 411.3H614.3C613 411.3 612 410.3 612 409V228.2C611.9 226.9 613 225.9 614.3 225.9Z" fill="white"/>
<path fill-rule="evenodd" clip-rule="evenodd" d="M455.5 219.801H626.4C627.3 219.801 628.1 220.601 628.1 221.501V229.501C628.1 230.401 627.3 231.201 626.4 231.201H466.7C463.4 226.901 459.7 223.101 455.5 219.801Z" fill="#B56B41"/>
<path fill-rule="evenodd" clip-rule="evenodd" d="M517.6 170.201L519.8 173.801C519.8 173.801 520.6 178.201 519.4 181.101C518.2 184.001 533.6 187.301 533.6 187.301L545.6 177.601L548.3 174.301C548.3 174.301 542.7 168.201 542.3 165.501C541.9 162.801 517.6 170.201 517.6 170.201Z" fill="#ED7862"/>
<path fill-rule="evenodd" clip-rule="evenodd" d="M490.9 204.5C490.9 204.5 482.8 211 480 211.5C477.2 212 464.9 206.3 462.4 205.7C459.9 205.1 454.4 205 450.5 205C446.6 205 442.5 206.5 440.4 210.8H448.7C450.9 210.8 458.5 216.9 465.7 221.9C472.9 226.9 478.8 231 483.6 230.5C488.4 230 505 217.6 505 217.6L490.9 204.5Z" fill="#F5AC83"/>
<path fill-rule="evenodd" clip-rule="evenodd" d="M465.6 221.9C472.9 226.9 478.7 231 483.5 230.5C488.3 230 504.9 217.6 504.9 217.6L490.9 204.5C490.9 204.5 489 206 486.8 207.6C492.7 217 490 221 483.1 223.8C477.6 226 463.5 218.3 454.6 214C457.7 216.2 461.7 219.2 465.6 221.9Z" fill="#ED7862"/>
<path fill-rule="evenodd" clip-rule="evenodd" d="M557 280.9C557 280.9 515.1 280.5 510 281C504.9 281.5 499.8 286.9 500.7 295.3C501.6 303.7 513.3 369.3 513.3 369.3C513.8 369.7 514.4 369.9 515 370.1C515.9 370.3 523.4 371.5 523.4 371.5L523.9 365.4L519.5 301.6L558.1 294.6L557 280.9Z" fill="#070725"/>
<path fill-rule="evenodd" clip-rule="evenodd" d="M523.9 365.4C524.5 365.6 525 366.1 525.2 366.8C525.8 369.9 526.2 373 526.3 376.2C526.2 377.2 523.6 379.2 519.2 381.1C514.8 383 498 387.9 498 387.9L497.8 387.3C497.3 387 496.9 386.5 496.7 385.9C496.3 384.3 496.6 382.7 497.4 381.3C498.3 380 503.7 376.3 504.7 375.5C505.7 374.7 510.6 367.9 511 367.4C512.7 366 515.2 365.8 517.1 367C520.1 368.6 523.6 368 523.9 365.4Z" fill="#D64C47"/>
<path fill-rule="evenodd" clip-rule="evenodd" d="M497.7 387.2C497.7 387.2 514.5 381 518.2 379.7C521.1 378.5 523.8 376.9 526.2 374.9C526.5 375.1 526.8 375.3 526.9 375.7C527 376.2 527.1 377.9 527.2 378.3C527.2 379.5 526.4 380.7 525.3 381.1C523.5 381.9 500 390.1 498.9 390.5C497.8 390.9 497.4 388 497.4 388C497.4 388 497.3 387.4 497.7 387.2Z" fill="white"/>
<path fill-rule="evenodd" clip-rule="evenodd" d="M582.9 254.9C582.9 254.9 471 267.8 464.9 269.2C458.8 270.6 453.6 277.8 456 287.7C458.4 297.6 483.4 377.4 483.4 377.4C484.1 377.8 484.8 378 485.5 378.1C486.6 378.2 495.8 378.5 495.8 378.5L499.4 374.8L479.4 303.6L561.2 299.5C584.1 295.7 587.2 267.8 582.9 254.9Z" fill="#181D3B"/>
<path fill-rule="evenodd" clip-rule="evenodd" d="M504.2 263.4C504.2 263.4 513.1 270 518.5 267.9C523.9 265.8 549.7 221.1 549.7 221.1L537.3 176.4C531.2 176.8 525.1 177.6 519.2 178.9L517.3 180.6C517.3 180.6 510 181.8 505.9 186.5C501.8 191.2 488.2 203.2 487.7 204.2C487.2 205.2 499.5 218.8 502.7 220.9C503.5 221.2 504.4 221 505.1 220.5L506.6 219.3C506.6 219.3 509.9 236.5 509.9 241.7V246.8C509.9 246.8 508.2 260 506.8 261.2C505.4 262.4 504.2 263.4 504.2 263.4Z" fill="#F8BD7A"/>
<path fill-rule="evenodd" clip-rule="evenodd" d="M544.2 271.9C546.3 271.9 548 270.2 548 268.1C548 266 546.3 264.3 544.2 264.3H511.1C503.4 264.2 496.8 258.9 495.1 251.4C492.7 252.4 490.4 253.5 488.2 254.7C491.3 264.8 500.6 271.7 511.1 271.8H544.2V271.9Z" fill="white"/>
<path d="M553.9 301.6H544.4V379.8H553.9V301.6Z" fill="#070725"/>
<path d="M541 275.4H531.7V296.6H541V275.4Z" fill="#00000F"/>
<path d="M605.1 275.4H595.8V296.6H605.1V275.4Z" fill="#00000F"/>
<path d="M544.4 299.801H553.9C556.9 299.801 559.4 302.301 559.4 305.301V315.501C559.4 318.501 556.9 321.001 553.9 321.001H544.4C541.4 321.001 538.9 318.501 538.9 315.501V305.301C538.9 302.301 541.3 299.801 544.4 299.801Z" fill="#3B405F"/>
<path d="M536.8 298.1H561.4C562.3 298.1 563 298.8 563 299.7V312.5C563 313.4 562.3 314.1 561.4 314.1H536.8C535.9 314.1 535.2 313.4 535.2 312.5V299.7C535.2 298.8 535.9 298.1 536.8 298.1Z" fill="#070725"/>
<path d="M476.1 292.1H553.2C556.1 292.1 558.5 294.5 558.5 297.4V303.4C558.5 306.3 556.1 308.7 553.2 308.7H476.1C473.2 308.7 470.8 306.3 470.8 303.4V297.4C470.8 294.4 473.2 292.1 476.1 292.1Z" fill="#EE5050"/>
<path d="M532.2 292.1H609.3C612.2 292.1 614.6 294.5 614.6 297.4V303.4C614.6 306.3 612.2 308.7 609.3 308.7H532.2C529.3 308.7 526.9 306.3 526.9 303.4V297.4C526.9 294.5 529.3 292.1 532.2 292.1Z" fill="#D95050"/>
<path d="M544.4 374.801H553.9C556.9 374.801 559.4 377.301 559.4 380.301V390.501C559.4 393.501 556.9 396.001 553.9 396.001H544.4C541.4 396.001 538.9 393.501 538.9 390.501V380.301C538.9 377.301 541.3 374.801 544.4 374.801Z" fill="#3B405F"/>
<path d="M537.5 384.9H560.7C562 384.9 563 385.9 563 387.2V405.7C563 407 562 408 560.7 408H537.5C536.2 408 535.2 407 535.2 405.7V387.2C535.2 385.9 536.2 384.9 537.5 384.9Z" fill="#070725"/>
<path fill-rule="evenodd" clip-rule="evenodd" d="M574.4 402.3C574.4 406.1 571.3 409.1 567.6 409.1H530.8C527 409.1 524 406 524 402.3C524 398.5 527.1 395.5 530.8 395.5H567.6C571.3 395.5 574.3 398.5 574.4 402.3Z" fill="#707386"/>
<path fill-rule="evenodd" clip-rule="evenodd" d="M610.2 409.101C610.2 412.901 607.1 415.901 603.4 415.901H509.8C506 415.901 503 412.801 503 409.101C503 405.301 506.1 402.301 509.8 402.301H603.4C607.1 402.301 610.2 405.301 610.2 409.101Z" fill="#101537"/>
<path fill-rule="evenodd" clip-rule="evenodd" d="M551.6 409.101C551.6 412.901 548.5 415.901 544.8 415.901H494.9C491.1 415.901 488.1 412.801 488.1 409.101C488.1 405.301 491.2 402.301 494.9 402.301H544.8C548.5 402.301 551.6 405.301 551.6 409.101Z" fill="#00000F"/>
<path fill-rule="evenodd" clip-rule="evenodd" d="M530.3 246.8C532.4 246.7 534.1 248.3 534.2 250.4C534.3 252.5 532.7 254.2 530.6 254.3C530.5 254.3 530.3 254.3 530.2 254.3H497.1C488 254.3 480.7 261.7 480.7 270.7V300.5C480.8 302.6 479.2 304.3 477.1 304.4C475 304.5 473.3 302.9 473.2 300.8C473.2 300.7 473.2 300.5 473.2 300.4V270.6C473.2 257.4 483.9 246.7 497.2 246.6H530.3V246.8Z" fill="white"/>
<path fill-rule="evenodd" clip-rule="evenodd" d="M603.7 206.799C603.6 184.099 585.3 165.699 562.6 165.699H557.1C534.4 165.799 516 184.099 516 206.799V267.999C516 273.799 520.7 278.499 526.6 278.599H593.2C599 278.599 603.7 273.899 603.8 267.999V206.799H603.7Z" fill="#EE5050"/>
<path fill-rule="evenodd" clip-rule="evenodd" d="M614.7 206.799C614.6 184.099 596.3 165.699 573.6 165.699H568.1C545.4 165.799 527 184.099 527 206.799V267.999C527 273.799 531.7 278.599 537.6 278.599H604.2C610 278.599 614.7 273.899 614.8 267.999V206.799H614.7Z" fill="#D95050"/>
<path fill-rule="evenodd" clip-rule="evenodd" d="M498.5 371.9C499.4 371.9 500.3 372.4 500.8 373.1C501.7 374.3 504.9 382.6 505.1 383.8C505.3 385 501.8 388.2 495.4 391.7C489 395.2 464.2 406.2 464.2 406.2L463.7 405.5C462.9 405.4 462.1 404.9 461.6 404.2C460.6 402.5 460.5 400.3 461.4 398.5C462.5 396.7 469.9 390.6 471.3 389.4C472.7 388.2 478.4 378.6 478.9 377.9C479.4 377.2 483 374.5 488.3 375.6C493.6 376.7 498.8 375 498.5 371.9Z" fill="#D64C47"/>
<path fill-rule="evenodd" clip-rule="evenodd" d="M463.8 405.6C463.8 405.6 488.3 393.2 493.6 390.6C499 388 504.8 382.5 504.8 382.5C504.8 382.5 505.8 382.6 506.1 383.2C506.5 384.2 506.9 385.1 507.2 386.1C507.4 386.5 507.6 388.5 505 390C502.4 391.5 468.1 408.3 466.5 409C464.9 409.7 463.5 406.5 463.5 406.5C463.5 406.5 463.2 405.9 463.8 405.6Z" fill="white"/>
<path fill-rule="evenodd" clip-rule="evenodd" d="M510.5 119.8L514.5 118.9C524 116.7 533.5 122.6 535.8 132.1L540.2 151.1C542.4 160.6 536.5 170.1 527 172.4L523 173.3C513.5 175.5 504 169.6 501.7 160.1L497.3 141.1C495 131.6 500.9 122.1 510.5 119.8Z" fill="#F5AC83"/>
<path fill-rule="evenodd" clip-rule="evenodd" d="M536.3 134.3L540.2 151.1C542.4 160.6 536.5 170.1 527 172.4L523 173.3C519.2 174.2 515.2 173.8 511.7 172.2C512.2 172.4 515.5 173.7 516.3 171.2C517.1 168.5 512.5 160 512.5 160C512.3 159.6 512.4 159.2 512.6 158.9C514.5 155.6 515.1 151.8 514.4 148C513.3 142.3 520.6 138.3 520.6 138.3L503.5 142.9V146.4C502.3 144.1 500 142.5 497.4 142.1L497.2 141.1C496.2 136.8 496.8 132.3 499 128.4C504.7 129.1 523.3 131.5 536.3 134.3Z" fill="#ED7862"/>
<path fill-rule="evenodd" clip-rule="evenodd" d="M504.7 151.699C504.7 151.699 503.2 151.499 502.6 149.299C502 147.099 501.9 146.399 501.9 146.399C500.6 144.499 499.7 142.299 499.3 139.999C499.3 139.999 489.2 138.599 487.2 129.199C485.2 119.799 493.9 109.999 495.2 108.999C496.5 107.999 501.9 106.199 508.6 109.199C508.6 109.199 509.8 109.899 512 108.999C514.2 108.099 526.6 104.599 532.6 104.399C538.6 104.199 542.4 110.399 545.3 117.899C545.6 116.099 546.9 114.599 548.7 114.199C551.7 113.599 550.1 119.199 547.9 121.199C547.9 121.199 553 123.899 554 129.299C555 134.799 553.1 159.099 548.5 163.899C543.9 168.699 532.3 170.799 528.6 171.699C524.9 172.599 517.6 168.699 514.6 158.599C514.6 158.599 516.1 153.499 514.8 149.399C513.5 145.299 512.5 142.199 510.9 141.599C509.3 141.099 505.5 145.099 505.2 146.899C505.1 148.299 505.2 149.799 505.6 151.199C505.4 151.599 505 151.699 504.7 151.699Z" fill="#101537"/>
<path fill-rule="evenodd" clip-rule="evenodd" d="M504.7 151.7C504.7 151.7 503.2 151.5 502.6 149.3C502 147.1 501.9 146.4 501.9 146.4C500.6 144.5 499.7 142.3 499.3 140C499.3 140 489.2 138.6 487.2 129.2C485.2 119.8 493.9 110 495.2 109C495.2 109 485.7 119.4 496.2 124.7C506.7 130 522.2 133.4 532.4 132.8C542.6 132.2 549.8 114.5 549.8 114.5C551 115.6 549.6 119.7 547.8 121.2C547.8 121.2 552.9 123.9 553.9 129.3C554.9 134.8 553 159.1 548.4 163.9C543.8 168.7 532.2 170.8 528.5 171.7C524.8 172.6 517.5 168.7 514.5 158.6C514.5 158.6 516 153.5 514.7 149.4C513.4 145.3 512.4 142.2 510.8 141.6C509.2 141.1 505.4 145.1 505.1 146.9C505 148.3 505.1 149.8 505.5 151.2C505.4 151.6 505.1 151.7 504.7 151.7Z" fill="#070725"/>
<path fill-rule="evenodd" clip-rule="evenodd" d="M644.6 306.799C644.6 306.199 644.1 305.699 643.5 305.699C642.9 305.699 642.4 306.199 642.4 306.799V309.499H639.7C639.1 309.599 638.6 310.099 638.7 310.799C638.8 311.399 639.2 311.799 639.7 311.799H642.4V314.499C642.4 315.099 642.9 315.599 643.5 315.599C644.1 315.599 644.6 315.099 644.6 314.499V311.799H647.3C647.9 311.899 648.5 311.399 648.6 310.799C648.7 310.199 648.2 309.599 647.6 309.499C647.5 309.499 647.5 309.499 647.4 309.499H644.7V306.799H644.6Z" fill="#9FB2D9"/>
<path fill-rule="evenodd" clip-rule="evenodd" d="M576.1 70.2991C576.2 69.6991 575.7 69.0991 575.1 68.9991C574.5 68.8991 573.9 69.3991 573.8 69.9991C573.8 70.0991 573.8 70.0991 573.8 70.1991V72.9991H571.1C570.5 72.9991 570 73.4991 570 74.0991C570 74.6991 570.5 75.1991 571.1 75.1991H573.8V77.9991C573.9 78.5991 574.4 79.0991 575.1 78.9991C575.7 78.8991 576.1 78.4991 576.1 77.9991V75.2991H578.8C579.4 75.2991 579.9 74.7991 579.9 74.1991C579.9 73.5991 579.4 73.0991 578.8 73.0991H576.1V70.2991Z" fill="#9FB2D9"/>
<path fill-rule="evenodd" clip-rule="evenodd" d="M446.9 27.6C446.9 27 446.4 26.5 445.8 26.5C445.2 26.5 444.7 27 444.7 27.6V30.3H442C441.4 30.3 440.9 30.8 440.9 31.4C440.9 32 441.4 32.5 442 32.5H444.7V35.2C444.7 35.8 445.2 36.3 445.8 36.3C446.4 36.3 446.9 35.8 446.9 35.2V32.5H449.6C450.2 32.5 450.7 32 450.7 31.4C450.7 30.8 450.2 30.3 449.6 30.3H446.9V27.6Z" fill="#9FB2D9"/>
<path fill-rule="evenodd" clip-rule="evenodd" d="M127.6 255.101C127.5 254.501 127 254.001 126.3 254.101C125.7 254.201 125.3 254.601 125.3 255.101V257.801H122.6C122 257.901 121.5 258.401 121.6 259.101C121.7 259.701 122.1 260.101 122.6 260.101H125.2V262.801C125.3 263.401 125.8 263.901 126.5 263.801C127.1 263.701 127.5 263.301 127.5 262.801V260.101H130.2C130.8 260.001 131.3 259.501 131.2 258.801C131.1 258.201 130.7 257.801 130.2 257.801H127.5L127.6 255.101Z" fill="#9FB2D9"/>
<path fill-rule="evenodd" clip-rule="evenodd" d="M238.8 107.799C238.8 107.199 238.3 106.699 237.7 106.699C237.1 106.699 236.6 107.199 236.6 107.799V110.499H233.9C233.3 110.499 232.8 110.999 232.8 111.599C232.8 112.199 233.3 112.699 233.9 112.699H236.6V115.399C236.6 115.999 237.1 116.499 237.7 116.499C238.3 116.499 238.8 115.999 238.8 115.399V112.699H241.5C242.1 112.699 242.6 112.199 242.6 111.599C242.6 110.999 242.1 110.499 241.5 110.499H238.8V107.799Z" fill="#9FB2D9"/>
<path fill-rule="evenodd" clip-rule="evenodd" d="M108.2 363.7C108.2 363.1 107.7 362.6 107.1 362.6C106.5 362.6 106 363.1 106 363.7V366.4H103.3C102.7 366.5 102.2 367 102.3 367.7C102.4 368.3 102.8 368.7 103.3 368.7H106V371.4C106 372 106.5 372.5 107.1 372.5C107.7 372.5 108.2 372 108.2 371.4V368.7H110.9C111.5 368.6 112 368.1 111.9 367.4C111.8 366.8 111.4 366.4 110.9 366.4H108.2V363.7Z" fill="#9FB2D9"/>
<path fill-rule="evenodd" clip-rule="evenodd" d="M6.09992 281C6.09992 280.4 5.59992 279.9 4.99992 279.9C4.39992 279.9 3.89992 280.4 3.89992 281V283.7H1.09992C0.499915 283.6 -0.100085 284.1 -0.200085 284.7C-0.300085 285.3 0.199915 285.9 0.799915 286C0.899915 286 0.899915 286 0.999918 286H3.69992V288.7C3.69992 289.3 4.19992 289.8 4.79992 289.8C5.39992 289.8 5.89992 289.3 5.89992 288.7V286H8.59992C9.19992 285.9 9.69992 285.4 9.59992 284.7C9.49992 284.1 9.09992 283.7 8.59992 283.7H6.09992V281Z" fill="#9FB2D9"/>
<path fill-rule="evenodd" clip-rule="evenodd" d="M282.8 276.6C299 268 303.1 286.7 296.8 302.2C290.5 317.7 258.2 369.8 256.5 390.5C255.9 398.5 254.4 397.6 253.1 392C246.8 364 260.6 288.4 282.8 276.6Z" fill="#05A677"/>
<path fill-rule="evenodd" clip-rule="evenodd" d="M248.6 205.6C230 188.9 218.5 212.3 221.7 234.8C224.9 257.4 250.4 336.9 245.8 364.8C244 375.6 246.3 374.9 249.8 367.9C267.4 333 274.1 228.6 248.6 205.6Z" fill="#4A9075"/>
<path fill-rule="evenodd" clip-rule="evenodd" d="M245.4 372.6C245.8 373.6 246.7 373.1 247.9 371.4C267.2 307 237.1 210.8 237 210.5C236.8 210 236.3 209.7 235.7 209.8C235.2 210 234.9 210.5 235 211.1C235.1 211.3 265.6 308.9 245.4 372.6Z" fill="#1B7154"/>
<path fill-rule="evenodd" clip-rule="evenodd" d="M208.1 259.1C190.1 251.3 187.3 271.6 195.3 287.6C203.3 303.6 242.1 356.5 245.6 378.4C247 386.9 248.5 385.8 249.4 379.7C253.8 349.3 232.8 269.9 208.1 259.1Z" fill="#05A677"/>
<path fill-rule="evenodd" clip-rule="evenodd" d="M233.4 372.6H267.9L276.9 380.7L269.5 409.1H250.6H231.7L224.4 380.7L233.4 372.6Z" fill="#3B405F"/>
<path d="M224.4 362H277C278.6 362 279.9 363.3 279.9 364.9V377.9C279.9 379.5 278.6 380.8 277 380.8H224.4C222.8 380.8 221.5 379.5 221.5 377.9V364.9C221.5 363.3 222.8 362 224.4 362Z" fill="#3B405F"/>
<path fill-rule="evenodd" clip-rule="evenodd" d="M276.9 380.699L275.4 386.599H225.9L224.4 380.699H276.9Z" fill="#101537"/>
</g>
</g>
<defs>
<clipPath id="clip0_625_204">
<rect width="685" height="418" fill="white"/>
</clipPath>
</defs>
</svg>
